<svg xmlns="http://www.w3.org/2000/svg" version="1.1" xmlns:xlink="http://www.w3.org/1999/xlink" xmlns:svgjs="http://svgjs.dev/svgjs" viewBox="0 0 800 800"><defs><linearGradient x1="50%" y1="0%" x2="50%" y2="100%" id="ffflurry-grad" gradientTransform="rotate(270)"><stop stop-color="#48202000" stop-opacity="1" offset="0%"></stop><stop stop-color="hsl(0, 0%, 100%)" stop-opacity="1" offset="45%"></stop><stop stop-color="hsl(327, 66%, 64%)" stop-opacity="1" offset="100%"></stop></linearGradient></defs><rect width="100%" height="100%" fill="#48202000"></rect><g fill="url(#ffflurry-grad)"><rect width="178" height="2" x="542" y="750" rx="1" transform="rotate(34, 631, 751)" opacity="0.78"></rect><rect width="388" height="2" x="257" y="665" rx="1" transform="rotate(34, 451, 666)" opacity="0.98"></rect><rect width="186" height="2" x="172" y="153" rx="1" transform="rotate(34, 265, 154)" opacity="0.71"></rect><rect width="107" height="2" x="707.5" y="309" rx="1" transform="rotate(34, 761, 310)" opacity="0.81"></rect><rect width="498" height="2" x="-87" y="521" rx="1" transform="rotate(34, 162, 522)" opacity="0.24"></rect><rect width="292" height="2" x="460" y="473" rx="1" transform="rotate(34, 606, 474)" opacity="0.10"></rect><rect width="329" height="2" x="247.5" y="154" rx="1" transform="rotate(34, 412, 155)" opacity="0.24"></rect><rect width="253" height="2" x="61.5" y="290" rx="1" transform="rotate(34, 188, 291)" opacity="0.11"></rect><rect width="201" height="2" x="208.5" y="533" rx="1" transform="rotate(34, 309, 534)" opacity="0.77"></rect><rect width="366" height="2" x="388" y="26" rx="1" transform="rotate(34, 571, 27)" opacity="0.91"></rect><rect width="267" height="2" x="385.5" y="49" rx="1" transform="rotate(34, 519, 50)" opacity="0.90"></rect><rect width="46" height="2" x="747" y="59" rx="1" transform="rotate(34, 770, 60)" opacity="0.60"></rect><rect width="158" height="2" x="103" y="402" rx="1" transform="rotate(34, 182, 403)" opacity="0.23"></rect><rect width="57" height="2" x="301.5" y="78" rx="1" transform="rotate(34, 330, 79)" opacity="0.59"></rect><rect width="134" height="2" x="-40" y="58" rx="1" transform="rotate(34, 27, 59)" opacity="0.76"></rect><rect width="225" height="2" x="49.5" y="116" rx="1" transform="rotate(34, 162, 117)" opacity="0.21"></rect><rect width="114" height="2" x="-25" y="448" rx="1" transform="rotate(34, 32, 449)" opacity="0.57"></rect><rect width="299" height="2" x="617.5" y="433" rx="1" transform="rotate(34, 767, 434)" opacity="0.91"></rect><rect width="395" height="2" x="485.5" y="518" rx="1" transform="rotate(34, 683, 519)" opacity="0.98"></rect><rect width="290" height="2" x="623" y="620" rx="1" transform="rotate(34, 768, 621)" opacity="0.88"></rect><rect width="542" height="2" x="-124" y="675" rx="1" transform="rotate(34, 147, 676)" opacity="0.91"></rect><rect width="125" height="2" x="442.5" y="452" rx="1" transform="rotate(34, 505, 453)" opacity="0.41"></rect><rect width="330" height="2" x="426" y="90" rx="1" transform="rotate(34, 591, 91)" opacity="0.21"></rect><rect width="430" height="2" x="40" y="422" rx="1" transform="rotate(34, 255, 423)" opacity="0.72"></rect><rect width="58" height="2" x="545" y="668" rx="1" transform="rotate(34, 574, 669)" opacity="0.29"></rect><rect width="604" height="2" x="339" y="229" rx="1" transform="rotate(34, 641, 230)" opacity="0.97"></rect><rect width="227" height="2" x="278.5" y="478" rx="1" transform="rotate(34, 392, 479)" opacity="0.71"></rect><rect width="224" height="2" x="54" y="235" rx="1" transform="rotate(34, 166, 236)" opacity="0.95"></rect><rect width="79" height="2" x="331.5" y="392" rx="1" transform="rotate(34, 371, 393)" opacity="0.16"></rect><rect width="100" height="2" x="651" y="83" rx="1" transform="rotate(34, 701, 84)" opacity="0.47"></rect><rect width="149" height="2" x="149.5" y="765" rx="1" transform="rotate(34, 224, 766)" opacity="0.69"></rect><rect width="378" height="2" x="-74" y="765" rx="1" transform="rotate(34, 115, 766)" opacity="0.65"></rect><rect width="257" height="2" x="189.5" y="420" rx="1" transform="rotate(34, 318, 421)" opacity="0.18"></rect><rect width="500" height="2" x="310" y="154" rx="1" transform="rotate(34, 560, 155)" opacity="0.48"></rect><rect width="271" height="2" x="-94.5" y="712" rx="1" transform="rotate(34, 41, 713)" opacity="0.15"></rect><rect width="123" height="2" x="9.5" y="130" rx="1" transform="rotate(34, 71, 131)" opacity="0.84"></rect><rect width="143" height="2" x="267.5" y="138" rx="1" transform="rotate(34, 339, 139)" opacity="0.39"></rect><rect width="419" height="2" x="476.5" y="328" rx="1" transform="rotate(34, 686, 329)" opacity="0.53"></rect><rect width="59" height="2" x="19.5" y="344" rx="1" transform="rotate(34, 49, 345)" opacity="0.50"></rect><rect width="162" height="2" x="622" y="21" rx="1" transform="rotate(34, 703, 22)" opacity="0.28"></rect><rect width="354" height="2" x="-47" y="324" rx="1" transform="rotate(34, 130, 325)" opacity="0.40"></rect><rect width="477" height="2" x="-2.5" y="504" rx="1" transform="rotate(34, 236, 505)" opacity="0.26"></rect><rect width="225" height="2" x="-19.5" y="42" rx="1" transform="rotate(34, 93, 43)" opacity="0.75"></rect><rect width="170" height="2" x="415" y="222" rx="1" transform="rotate(34, 500, 223)" opacity="0.08"></rect><rect width="159" height="2" x="364.5" y="546" rx="1" transform="rotate(34, 444, 547)" opacity="0.73"></rect><rect width="248" height="2" x="365" y="283" rx="1" transform="rotate(34, 489, 284)" opacity="0.69"></rect><rect width="238" height="2" x="477" y="303" rx="1" transform="rotate(34, 596, 304)" opacity="0.75"></rect><rect width="57" height="2" x="451.5" y="142" rx="1" transform="rotate(34, 480, 143)" opacity="0.95"></rect><rect width="139" height="2" x="337.5" y="51" rx="1" transform="rotate(34, 407, 52)" opacity="0.87"></rect><rect width="726" height="2" x="-20" y="738" rx="1" transform="rotate(34, 343, 739)" opacity="0.96"></rect><rect width="37" height="2" x="714.5" y="154" rx="1" transform="rotate(34, 733, 155)" opacity="0.89"></rect><rect width="165" height="2" x="675.5" y="217" rx="1" transform="rotate(34, 758, 218)" opacity="0.58"></rect><rect width="349" height="2" x="-149.5" y="188" rx="1" transform="rotate(34, 25, 189)" opacity="0.07"></rect><rect width="77" height="2" x="84.5" y="223" rx="1" transform="rotate(34, 123, 224)" opacity="0.70"></rect><rect width="458" height="2" x="264" y="353" rx="1" transform="rotate(34, 493, 354)" opacity="0.36"></rect><rect width="429" height="2" x="420.5" y="38" rx="1" transform="rotate(34, 635, 39)" opacity="0.20"></rect><rect width="300" height="2" x="88" y="605" rx="1" transform="rotate(34, 238, 606)" opacity="0.80"></rect><rect width="218" height="2" x="357" y="49" rx="1" transform="rotate(34, 466, 50)" opacity="0.60"></rect><rect width="398" height="2" x="43" y="234" rx="1" transform="rotate(34, 242, 235)" opacity="0.75"></rect><rect width="84" height="2" x="272" y="272" rx="1" transform="rotate(34, 314, 273)" opacity="0.71"></rect><rect width="299" height="2" x="599.5" y="739" rx="1" transform="rotate(34, 749, 740)" opacity="0.11"></rect><rect width="138" height="2" x="245" y="346" rx="1" transform="rotate(34, 314, 347)" opacity="0.15"></rect><rect width="420" height="2" x="-131" y="264" rx="1" transform="rotate(34, 79, 265)" opacity="0.38"></rect><rect width="399" height="2" x="43.5" y="52" rx="1" transform="rotate(34, 243, 53)" opacity="0.62"></rect><rect width="122" height="2" x="120" y="173" rx="1" transform="rotate(34, 181, 174)" opacity="0.60"></rect><rect width="156" height="2" x="571" y="140" rx="1" transform="rotate(34, 649, 141)" opacity="0.72"></rect><rect width="356" height="2" x="-10" y="41" rx="1" transform="rotate(34, 168, 42)" opacity="0.62"></rect><rect width="46" height="2" x="222" y="685" rx="1" transform="rotate(34, 245, 686)" opacity="0.55"></rect><rect width="518" height="2" x="296" y="566" rx="1" transform="rotate(34, 555, 567)" opacity="0.31"></rect><rect width="90" height="2" x="-22" y="272" rx="1" transform="rotate(34, 23, 273)" opacity="0.57"></rect><rect width="59" height="2" x="405.5" y="415" rx="1" transform="rotate(34, 435, 416)" opacity="0.65"></rect><rect width="163" height="2" x="6.5" y="193" rx="1" transform="rotate(34, 88, 194)" opacity="0.94"></rect><rect width="735" height="2" x="-17.5" y="612" rx="1" transform="rotate(34, 350, 613)" opacity="0.37"></rect><rect width="666" height="2" x="351" y="633" rx="1" transform="rotate(34, 684, 634)" opacity="0.60"></rect><rect width="370" height="2" x="-80" y="433" rx="1" transform="rotate(34, 105, 434)" opacity="0.43"></rect><rect width="271" height="2" x="188.5" y="22" rx="1" transform="rotate(34, 324, 23)" opacity="0.15"></rect><rect width="263" height="2" x="350.5" y="760" rx="1" transform="rotate(34, 482, 761)" opacity="0.90"></rect><rect width="341" height="2" x="589.5" y="533" rx="1" transform="rotate(34, 760, 534)" opacity="0.16"></rect><rect width="28" height="2" x="312" y="478" rx="1" transform="rotate(34, 326, 479)" opacity="0.67"></rect><rect width="53" height="2" x="211.5" y="332" rx="1" transform="rotate(34, 238, 333)" opacity="0.45"></rect><rect width="197" height="2" x="306.5" y="315" rx="1" transform="rotate(34, 405, 316)" opacity="0.70"></rect><rect width="256" height="2" x="564" y="409" rx="1" transform="rotate(34, 692, 410)" opacity="0.33"></rect><rect width="525" height="2" x="-193.5" y="576" rx="1" transform="rotate(34, 69, 577)" opacity="0.13"></rect><rect width="457" height="2" x="139.5" y="221" rx="1" transform="rotate(34, 368, 222)" opacity="0.65"></rect><rect width="62" height="2" x="546" y="385" rx="1" transform="rotate(34, 577, 386)" opacity="0.48"></rect></g></svg>
